<svg id="Layer_1" data-name="Layer 1" xmlns="http://www.w3.org/2000/svg" viewBox="0 0 214.09 39.09"><title>Logo_text</title><path d="M206,265.66c5.11,0,8.28-2.64,8.28-6.86a5.81,5.81,0,0,0-5.64-5.79v-.13a5.28,5.28,0,0,0,4.5-5.2c0-3.67-2.82-6-7.32-6H195.44v24Zm-5.59-20.22h4.12c2.34,0,3.69,1.1,3.69,3s-1.53,3.2-4.2,3.2h-3.6Zm0,16.49v-7h4.2c3,0,4.57,1.2,4.57,3.44s-1.56,3.52-4.45,3.52Zm24.9,4.12c5.38,0,8.82-3.44,8.82-9.3s-3.49-9.26-8.82-9.26-8.82,3.5-8.82,9.26S220,266,225.35,266Zm0-3.7c-2.39,0-3.9-2-3.9-5.58s1.54-5.58,3.9-5.58,3.88,2,3.88,5.58S227.72,262.33,225.35,262.33Zm13-18.58v4.1h-2.51v3.65h2.51v9.35c0,3.47,1.63,4.86,5.81,4.86a11.14,11.14,0,0,0,2.31-.2V262a7.85,7.85,0,0,1-1.18.08c-1.43,0-2.09-.65-2.09-2v-8.52h3.29v-3.65h-3.29v-4.1Zm12.5,0v4.1h-2.51v3.65h2.51v9.35c0,3.47,1.63,4.86,5.81,4.86a11.15,11.15,0,0,0,2.31-.2V262a7.85,7.85,0,0,1-1.18.08c-1.43,0-2.09-.65-2.09-2v-8.52H259v-3.65h-3.29v-4.1Zm11.32,21.9H267v-24h-4.85Zm16.51-14.59a3.69,3.69,0,0,1,3.74,3.83h-7.55A3.85,3.85,0,0,1,278.7,251.06Zm3.8,9.15a3.54,3.54,0,0,1-3.59,2.24,4,4,0,0,1-4.08-4.28v-.3H287.1v-1.48c0-5.41-3.27-8.92-8.45-8.92s-8.58,3.69-8.58,9.36,3.29,9.2,8.77,9.2c4.4,0,7.59-2.34,8.12-5.83Zm33.3,5.45v-24H310l-6.81,17.2h-.13l-6.81-17.2h-5.81v24h4.47V249.49H295l6.51,16.17h3.15l6.51-16.17h.13v16.17Zm12-14.59a3.69,3.69,0,0,1,3.74,3.83h-7.55A3.85,3.85,0,0,1,327.77,251.06Zm3.8,9.15a3.54,3.54,0,0,1-3.59,2.24,4,4,0,0,1-4.08-4.28v-.3h12.27v-1.48c0-5.41-3.27-8.92-8.45-8.92s-8.58,3.69-8.58,9.36,3.29,9.2,8.77,9.2c4.4,0,7.59-2.34,8.12-5.83Zm8.81-16.45v4.1h-2.51v3.65h2.51v9.35c0,3.47,1.63,4.86,5.81,4.86a11.14,11.14,0,0,0,2.31-.2V262a7.83,7.83,0,0,1-1.18.08c-1.43,0-2.09-.65-2.09-2v-8.52h3.29v-3.65h-3.29v-4.1Zm11.2,21.9h4.85v-9.94c0-2.51,1.4-4,3.79-4A5,5,0,0,1,362,252v-4.27a4.94,4.94,0,0,0-1.38-.18,4.25,4.25,0,0,0-4.23,3.49h-.1v-3.2h-4.68Z" transform="translate(-148.13 -230.78)" style="fill:#fff;stroke:#000;stroke-miterlimit:10;stroke-width:0.5px"/><path d="M161.25,241.66a5.28,5.28,0,0,1,2.62,1.83,4.94,4.94,0,0,1,1,3.07v18.21a1.14,1.14,0,0,0,.1.45,1,1,0,0,1,.1.34q0,.1-.28.1H154.35q-.83,0-.83-.9V246.55a5.24,5.24,0,0,1,1-3.14,4.43,4.43,0,0,1,2.55-1.76v-8.48h4.21Z" transform="translate(-148.13 -230.78)" style="fill:#fff;stroke:#000;stroke-miterlimit:10;stroke-width:0.5px"/><path d="M161.25,231.28H157v1.38h4.21Z" transform="translate(-148.13 -230.78)" style="fill:#fff"/><path d="M176.29,233.72a.56.56,0,0,1-.55-.62.62.62,0,0,1,.34-.55.74.74,0,0,1-.34-.69.92.92,0,0,1,.21-.55.56.56,0,0,1,.41-.28h3.31a.6.6,0,0,1,.48.28.92.92,0,0,1,.21.55.68.68,0,0,1-.34.62.62.62,0,0,1,.34.55.6.6,0,0,1-.55.69L184,244a8.16,8.16,0,0,1,.55,2.21v18.07q0,1.38-.69,1.38H173.25q-.69,0-.69-1.17V245.86A5.08,5.08,0,0,1,173,244Z" transform="translate(-148.13 -230.78)" style="fill:#fff;stroke:#000;stroke-miterlimit:10;stroke-width:0.5px"/><path d="M167.08,244.72c-5.16,0-9.33,3.62-9.33,8s4.17,8,9.33,8Z" transform="translate(-148.13 -230.78)" style="fill:#fff;stroke:#000;stroke-miterlimit:10;stroke-width:0.5px"/><path d="M165.24,262.59a9.79,9.79,0,0,1-7-2.9,10,10,0,0,1,0-14.05,9.87,9.87,0,0,1,14,0,10,10,0,0,1,0,14.05A9.79,9.79,0,0,1,165.24,262.59Zm0-17a6.94,6.94,0,0,0-4.95,2.05,7.06,7.06,0,0,0,0,10,7,7,0,0,0,9.9,0,7.09,7.09,0,0,0,0-10A6.94,6.94,0,0,0,165.24,245.64Zm-16.76,21.15,7.41-7.45a11.71,11.71,0,0,0,2.71,2.73l-7.41,7.45Z" transform="translate(-148.13 -230.78)" style="fill:#fff;stroke:#000;stroke-miterlimit:10;stroke-width:0.5px"/></svg>