<svg width="37" height="40" viewBox="0 0 37 40" fill="none" xmlns="http://www.w3.org/2000/svg">
<path d="M13.2506 11.6552C14.3541 12.023 15.2276 12.6322 15.8713 13.4828C16.515 14.3333 16.8368 15.3563 16.8368 16.5517V34.7586C16.8368 34.8966 16.8713 35.046 16.9403 35.2069C17.0092 35.3678 17.0437 35.4828 17.0437 35.5517C17.0437 35.6207 16.9518 35.6552 16.7678 35.6552H6.35406C5.80233 35.6552 5.52647 35.3563 5.52647 34.7586V16.5517C5.52647 15.3563 5.84833 14.3103 6.49199 13.4138C7.13564 12.5172 7.98626 11.931 9.04371 11.6552V3.17241H13.2506V11.6552Z" fill="#090509"/>
<path fill-rule="evenodd" clip-rule="evenodd" d="M8.69888 2.82759H13.5954V11.4114C14.6497 11.8057 15.504 12.426 16.1463 13.2747C16.8407 14.1923 17.1816 15.2908 17.1816 16.5517V34.7586C17.1816 34.8391 17.2019 34.942 17.2572 35.071C17.3246 35.2282 17.3885 35.4034 17.3885 35.5517C17.3885 35.6537 17.3516 35.7502 17.2842 35.8261C17.2232 35.8948 17.1507 35.9316 17.0958 35.9522C16.9907 35.9916 16.8716 36 16.7678 36H6.35406C6.01765 36 5.704 35.9076 5.47999 35.6649C5.26079 35.4275 5.18164 35.1041 5.18164 34.7586V16.5517C5.18164 15.2905 5.5226 14.1728 6.21187 13.2127C6.84897 12.3253 7.68086 11.7171 8.69888 11.3957V2.82759ZM9.38854 3.51724V11.9216L9.13076 11.9888C8.15199 12.2442 7.36934 12.783 6.7721 13.6149C6.17407 14.4479 5.8713 15.4222 5.8713 16.5517V34.7586C5.8713 35.0109 5.93008 35.1358 5.98675 35.1972C6.03859 35.2533 6.13874 35.3103 6.35406 35.3103H16.6098C16.5354 35.1281 16.492 34.9431 16.492 34.7586V16.5517C16.492 15.4219 16.1892 14.4743 15.5963 13.6908C14.9985 12.9008 14.1852 12.3302 13.1416 11.9823L12.9058 11.9037V3.51724H9.38854Z" fill="white"/>
<path d="M13.2506 0.344828H9.04371V1.72414H13.2506V0.344828Z" fill="#090509"/>
<path fill-rule="evenodd" clip-rule="evenodd" d="M8.69888 0H13.5954V2.06897H8.69888V0ZM9.38854 0.689656V1.37931H12.9058V0.689656H9.38854Z" fill="white"/>
<path d="M28.2851 3.72414C27.9173 3.67814 27.7334 3.47124 27.7334 3.10345C27.7334 2.87359 27.8483 2.68966 28.0782 2.55172C27.8483 2.41379 27.7334 2.18393 27.7334 1.86207C27.7334 1.67814 27.8023 1.49428 27.9403 1.31035C28.0782 1.12641 28.2161 1.03448 28.3541 1.03448H31.6644C31.8484 1.03448 32.0092 1.12641 32.1472 1.31035C32.2851 1.49448 32.3541 1.67841 32.3541 1.86207C32.3541 2.13793 32.2391 2.34483 32.0092 2.48276C32.2391 2.62069 32.3541 2.80462 32.3541 3.03448C32.3541 3.44828 32.1701 3.67814 31.8024 3.72414L36.0093 14C36.3771 15.0574 36.561 15.7931 36.561 16.2069V34.2759C36.561 35.1954 36.3311 35.6552 35.8713 35.6552H25.2506C24.7908 35.6552 24.561 35.2643 24.561 34.4828V34.2759V15.8621C24.561 15.3103 24.6989 14.6897 24.9747 14L28.2851 3.72414Z" fill="#090509"/>
<path fill-rule="evenodd" clip-rule="evenodd" d="M28.3385 1.39036C28.3119 1.40805 28.2701 1.44535 28.2162 1.51722C28.1116 1.65664 28.0782 1.7697 28.0782 1.86207C28.0782 2.09124 28.1519 2.19379 28.2556 2.25604L28.7484 2.55172L28.2556 2.8474C28.1092 2.93527 28.0782 3.01677 28.0782 3.10345C28.0782 3.2311 28.1095 3.28335 28.1291 3.30537C28.149 3.32777 28.1985 3.3658 28.3279 3.38198L28.741 3.43364L25.2994 14.117L25.2949 14.1281C25.0301 14.7903 24.9058 15.3665 24.9058 15.8621V34.4828C24.9058 34.851 24.962 35.0705 25.0306 35.1872C25.0825 35.2755 25.1408 35.3103 25.2506 35.3103H35.8713C35.9259 35.3103 35.9583 35.2977 35.9818 35.282C36.0074 35.265 36.0431 35.2302 36.0802 35.1561C36.1591 34.9983 36.2162 34.718 36.2162 34.2759V16.2069C36.2162 15.8605 36.0542 15.1801 35.6866 14.122L31.3126 3.43788L31.7596 3.38198C31.8786 3.36709 31.9246 3.32963 31.9469 3.30181C31.9735 3.26858 32.0093 3.19426 32.0093 3.03448C32.0093 2.9478 31.9783 2.86631 31.8318 2.77844L31.3391 2.48276L31.8318 2.18708C31.9542 2.11364 32.0093 2.02109 32.0093 1.86207C32.0093 1.77005 31.9759 1.65691 31.8713 1.51722M28.3385 1.39036C28.3487 1.38351 28.3552 1.38051 28.3584 1.37931ZM28.3606 1.37861C28.3606 1.37863 28.3603 1.37874 28.3596 1.37887C28.3603 1.37865 28.3606 1.37859 28.3606 1.37861ZM28.3584 1.37931H31.6644C31.7129 1.37931 31.7805 1.39612 31.8713 1.51722M27.6644 1.10346C27.8245 0.890025 28.0518 0.689655 28.3541 0.689655H31.6644C31.9838 0.689655 32.2381 0.856754 32.4231 1.10346L32.4232 1.10361C32.5944 1.33213 32.6989 1.58681 32.6989 1.86207C32.6989 2.09561 32.6371 2.30387 32.516 2.47691C32.6325 2.63232 32.6989 2.81893 32.6989 3.03448C32.6989 3.2885 32.6427 3.536 32.4854 3.73265C32.4201 3.81432 32.3436 3.87939 32.2592 3.93L36.3319 13.8779L36.3349 13.8867C36.7008 14.9386 36.9058 15.7267 36.9058 16.2069V34.2759C36.9058 34.7532 36.848 35.1626 36.697 35.4645C36.6191 35.6204 36.5111 35.758 36.3643 35.8559C36.2154 35.9552 36.0466 36 35.8713 36H25.2506C24.9007 36 24.6141 35.8394 24.4362 35.5369C24.2749 35.2628 24.2162 34.8961 24.2162 34.4828V15.8621C24.2162 15.2573 24.3662 14.5959 24.6502 13.8831L27.8506 3.94852C27.763 3.90208 27.6828 3.84136 27.6136 3.76356C27.4493 3.57869 27.3886 3.34359 27.3886 3.10345C27.3886 2.88555 27.4564 2.69723 27.5753 2.5408C27.4475 2.34949 27.3886 2.11659 27.3886 1.86207C27.3886 1.58657 27.4931 1.33191 27.6644 1.10346Z" fill="white"/>
<path d="M19.0807 14.7167C13.9178 14.7555 9.74653 18.3401 9.74653 22.7563C9.74653 27.1725 13.9178 30.7571 19.0807 30.7959V14.7167Z" fill="black"/>
<path fill-rule="evenodd" clip-rule="evenodd" d="M19.4214 14.3734V31.1392L19.0781 31.1366C13.7803 31.0967 9.40588 27.4078 9.40588 22.7563C9.40588 18.1048 13.7803 14.4159 19.0781 14.376L19.4214 14.3734ZM18.74 15.0653C13.8759 15.2547 10.0872 18.6711 10.0872 22.7563C10.0872 26.8416 13.8759 30.2579 18.74 30.4473V15.0653Z" fill="white"/>
<path d="M17.2415 32.5916C14.6055 32.5916 12.1187 31.5666 10.2536 29.6915C8.38852 27.8164 7.36893 25.3163 7.36893 22.6662C7.36893 20.0161 8.38852 17.516 10.2536 15.6409C12.1187 13.7658 14.6055 12.7408 17.2415 12.7408C19.8775 12.7408 22.3643 13.7658 24.2294 15.6409C28.084 19.5161 28.084 25.8164 24.2294 29.6915C22.3643 31.5666 19.8775 32.5916 17.2415 32.5916ZM17.2415 15.6409C15.3764 15.6409 13.6108 16.3659 12.2928 17.691C9.55732 20.4411 9.55732 24.8913 12.2928 27.6414C13.6108 28.9665 15.3764 29.6915 17.2415 29.6915C19.1066 29.6915 20.8723 28.9665 22.1903 27.6414C23.5083 26.3164 24.2294 24.5413 24.2294 22.6662C24.2294 20.7911 23.5083 19.0161 22.1903 17.691C20.8723 16.3659 19.1066 15.6409 17.2415 15.6409ZM0.48049 36.7918L7.89116 29.3415C8.26418 29.8665 8.68694 30.3665 9.13456 30.8166C9.58219 31.2666 10.0795 31.6916 10.6018 32.0666L3.1911 39.5169L0.48049 36.7918Z" fill="black"/>
<path fill-rule="evenodd" clip-rule="evenodd" d="M17.2415 13.0815C14.6956 13.0815 12.2959 14.0708 10.4951 15.8812C8.69436 17.6916 7.70959 20.105 7.70959 22.6662C7.70959 25.2275 8.69436 27.6409 10.4951 29.4513C12.2959 31.2616 14.6956 32.251 17.2415 32.251C19.7875 32.251 22.1872 31.2616 23.9879 29.4513C27.7103 25.709 27.7103 19.6235 23.9879 15.8812C22.1872 14.0708 19.7875 13.0815 17.2415 13.0815ZM10.0121 15.4007C11.9416 13.4609 14.5155 12.4002 17.2415 12.4002C19.9676 12.4002 22.5415 13.4609 24.471 15.4007C28.4577 19.4087 28.4577 25.9237 24.471 29.9318C22.5415 31.8716 19.9676 32.9323 17.2415 32.9323C14.5155 32.9323 11.9416 31.8716 10.0121 29.9318C8.08268 27.992 7.02827 25.4052 7.02827 22.6662C7.02827 19.9273 8.08268 17.3404 10.0121 15.4007ZM12.0513 17.4508C13.4339 16.0607 15.2868 15.3003 17.2415 15.3003C19.1963 15.3003 21.0491 16.0607 22.4318 17.4508C23.8144 18.8408 24.5701 20.7027 24.5701 22.6662C24.5701 24.6298 23.8144 26.4917 22.4318 27.8817C21.0491 29.2718 19.1963 30.0322 17.2415 30.0322C15.2868 30.0322 13.4339 29.2718 12.0513 27.8817C9.18361 24.9987 9.18361 20.3338 12.0513 17.4508ZM17.2415 15.9816C15.4661 15.9816 13.7877 16.6712 12.5343 17.9313C9.93103 20.5485 9.93103 24.784 12.5343 27.4012C13.7877 28.6612 15.4661 29.3509 17.2415 29.3509C19.017 29.3509 20.6954 28.6612 21.9487 27.4012C23.2022 26.1411 23.8888 24.4529 23.8888 22.6662C23.8888 20.8796 23.2022 19.1914 21.9487 17.9313C20.6954 16.6712 19.017 15.9816 17.2415 15.9816ZM7.93473 28.8147L8.16887 29.1442C8.53089 29.6537 8.94151 30.1394 9.37609 30.5763C9.81066 31.0132 10.2937 31.426 10.8005 31.7899L11.1254 32.0233L3.1911 40L0 36.7918L7.93473 28.8147ZM0.960981 36.7918L3.1911 39.0339L10.083 32.1051C9.66224 31.7808 9.26135 31.4271 8.89304 31.0568C8.52555 30.6874 8.17447 30.2853 7.85253 29.8634L0.960981 36.7918Z" fill="white"/>
</svg>
